<svg width="126" height="46" viewBox="0 0 126 46" fill="none" xmlns="http://www.w3.org/2000/svg">
<path d="M36 25L4.82309 6.25L67.1769 6.25L36 25Z" fill="#03EED2"/>
<rect x="5" y="7" width="62" height="36" stroke="black" stroke-width="2"/>
<path d="M5 43L36 25M67 7L36 25M5 7L36 25" stroke="black" stroke-width="2"/>
<path d="M78.624 9.8H86.976V11.608H82.72L83.776 12.552V21H81.84V13L81.376 11.608H78.624V9.8ZM89.8498 9.8H96.0898V11.608H90.5858L90.2978 11.928V14.44H93.9938V16.248H90.2978V18.488L90.7618 19.192H96.0898V21H89.8018L88.3618 18.856V11.32L89.8498 9.8ZM99.6355 9.8H104.484L105.588 11.464L104.276 12.744L103.508 11.608H100.388L100.1 11.912V13.784L100.58 14.488H104.628L105.908 16.424V19.64L104.596 21H99.0115L98.0675 19.656L99.3315 18.344L99.9555 19.192H103.796L103.972 19.048V16.744L103.652 16.296H99.6035L98.1635 14.152V11.336L99.6355 9.8ZM107.405 9.8H115.757V11.608H111.501L112.557 12.552V21H110.621V13L110.157 11.608H107.405V9.8ZM80.448 29.8H85.296L86.4 31.464L85.088 32.744L84.32 31.608H81.2L80.912 31.912V33.784L81.392 34.488H85.44L86.72 36.424V39.64L85.408 41H79.824L78.88 39.656L80.144 38.344L80.768 39.192H84.608L84.784 39.048V36.744L84.464 36.296H80.416L78.976 34.152V31.336L80.448 29.8ZM88.5378 29.8H90.4738V29.976L92.1538 32.488L94.3298 29.8H96.2658V41H94.3298V32.408L93.0658 33.896V34.904H91.6738V34.648L90.4738 32.856V41H88.5378V29.8ZM97.8115 29.8H106.164V31.608H101.908L102.964 32.552V41H101.028V33L100.564 31.608H97.8115V29.8ZM107.709 29.8H114.029L115.453 31.944V34.776L113.997 36.264H109.645V41H107.709V29.8ZM109.645 31.608V35.016L110.541 34.488H113.213L113.517 34.184V32.312L113.053 31.608H109.645Z" fill="black"/>
</svg>
